<?xml version="1.0" encoding="UTF-8"?>
<svg width="19px" height="30px" viewBox="0 0 19 30" version="1.1" xmlns="http://www.w3.org/2000/svg" xmlns:xlink="http://www.w3.org/1999/xlink">
    <!-- Generator: Sketch 43.1 (39012) - http://www.bohemiancoding.com/sketch -->
    <title>Group 31</title>
    <desc>Created with Sketch.</desc>
    <defs></defs>
    <g id="Page-1" stroke="none" stroke-width="1" fill="none" fill-rule="evenodd">
        <g id="Main_1024" transform="translate(-1198.000000, -6223.000000)" fill="#A4BE39">
            <g id="Group-31" transform="translate(1198.000000, 6223.000000)">
                <g id="Group-29">
                    <ellipse id="Oval-10-Copy-11" transform="translate(4.192547, 3.659783) rotate(-270.000000) translate(-4.192547, -3.659783) " cx="4.19254658" cy="3.65978261" rx="3.65978261" ry="3.63354037"></ellipse>
                    <ellipse id="Oval-10-Copy-15" transform="translate(4.192547, 14.833696) rotate(-270.000000) translate(-4.192547, -14.833696) " cx="4.19254658" cy="14.8336957" rx="3.65978261" ry="3.63354037"></ellipse>
                    <ellipse id="Oval-10-Copy-16" transform="translate(15.366460, 14.833696) rotate(-270.000000) translate(-15.366460, -14.833696) " cx="15.3664596" cy="14.8336957" rx="3.65978261" ry="3.63354037"></ellipse>
                    <ellipse id="Oval-10-Copy-16" transform="translate(15.366460, 3.659783) rotate(-270.000000) translate(-15.366460, -3.659783) " cx="15.3664596" cy="3.65978261" rx="3.65978261" ry="3.63354037"></ellipse>
                    <ellipse id="Oval-10-Copy-15" transform="translate(4.192547, 25.833696) rotate(-270.000000) translate(-4.192547, -25.833696) " cx="4.19254658" cy="25.8336957" rx="3.65978261" ry="3.63354037"></ellipse>
                    <ellipse id="Oval-10-Copy-16" transform="translate(15.366460, 25.833696) rotate(-270.000000) translate(-15.366460, -25.833696) " cx="15.3664596" cy="25.8336957" rx="3.65978261" ry="3.63354037"></ellipse>
                </g>
            </g>
        </g>
    </g>
</svg>