<?xml version="1.0" encoding="UTF-8" standalone="no"?>
<svg width="126px" height="76px" viewBox="0 0 126 76" version="1.1" xmlns="http://www.w3.org/2000/svg" xmlns:xlink="http://www.w3.org/1999/xlink">
    <!-- Generator: Sketch 43.1 (39012) - http://www.bohemiancoding.com/sketch -->
    <title>Maestro_logo</title>
    <desc>Created with Sketch.</desc>
    <defs></defs>
    <g id="Page-1" stroke="none" stroke-width="1" fill="none" fill-rule="evenodd">
        <g id="Maestro_logo">
            <path d="M63.00035,65.84929 C70.59835,58.97429 75.34735,49.03829 75.34735,37.99529 C75.34735,26.95329 70.59835,17.02529 63.00035,10.14929 C56.35235,4.10529 47.46935,0.42729 37.80435,0.42729 C17.02135,0.42729 0.20535,17.24629 0.20535,37.99529 C0.20535,58.75229 17.02135,75.57129 37.80435,75.57129 C47.46835,75.57229 56.35135,71.88629 63.00035,65.84929" id="path618" fill="#0066CB" fill-rule="nonzero"></path>
            <path d="M63.00035,65.84929 C70.59835,58.97429 75.34735,49.03829 75.34735,37.99529 C75.34735,26.95329 70.59835,17.02529 63.00035,10.14929" id="path620" fill="#0066CB" fill-rule="nonzero"></path>
            <path d="M63.00035,65.84929 C70.59835,58.97429 75.34735,49.03829 75.34735,37.99529 C75.34735,26.95329 70.59835,17.02529 63.00035,10.14929" id="path622" stroke="#0066CB" stroke-width="0.3097"></path>
            <path d="M88.25235,0.42829 C78.53135,0.42829 69.64835,4.10629 63.00035,10.15029 C61.65935,11.38629 60.37435,12.71429 59.20135,14.13329 L66.79935,14.13329 C67.86135,15.39229 68.81135,16.72029 69.64935,18.10929 L56.35235,18.10929 C55.57035,19.38329 54.84435,20.71129 54.17335,22.08529 L71.82735,22.08529 C72.44135,23.37529 72.94435,24.70229 73.39135,26.06829 L52.60835,26.06829 C52.16135,27.35829 51.77035,28.68629 51.49135,30.04429 L74.50935,30.04429 C75.06835,32.60829 75.34735,35.27129 75.34735,37.99629 C75.34735,42.16929 74.67635,46.18429 73.39135,49.93129 L52.60935,49.93129 C53.05635,51.29629 53.55935,52.62429 54.17335,53.91329 L71.82735,53.91329 C71.15635,55.28829 70.48635,56.61529 69.64835,57.89029 L56.35135,57.89029 C57.18935,59.27929 58.19535,60.60729 59.20135,61.86729 L66.79935,61.86729 C65.62635,63.28529 64.34135,64.61329 63.00035,65.84929 C69.64835,71.88629 78.53135,75.57229 88.25235,75.57229 C108.97935,75.57229 125.79535,58.75329 125.79535,37.99629 C125.79535,17.24729 108.97835,0.42829 88.25235,0.42829" id="path624" fill="#CC0001" fill-rule="nonzero"></path>
            <path d="M121.82835,58.86729 L121.99635,58.86729 C122.05335,58.86729 122.10735,58.87529 122.10735,58.85129 C122.16435,58.82129 122.21935,58.77529 122.21935,58.73029 C122.21935,58.68329 122.16335,58.63829 122.10735,58.61529 C122.10735,58.59229 121.99635,58.59929 121.99635,58.59929 L121.82835,58.59929 L121.82835,58.86729 L121.82835,58.86729 Z M121.82835,59.47729 L121.60535,59.47729 L121.60535,58.40929 L122.05235,58.40929 C122.16335,58.40929 122.21935,58.40929 122.33135,58.46329 C122.38735,58.52429 122.44235,58.62329 122.44235,58.73129 C122.44235,58.85229 122.38635,58.96029 122.27435,59.00429 L122.44235,59.47829 L122.16335,59.47829 L122.05235,59.05129 L121.82735,59.05129 L121.82735,59.47729 L121.82835,59.47729 Z M121.99635,59.86729 C122.49935,59.86729 122.94635,59.45529 122.94635,58.94329 C122.94635,58.43129 122.49935,58.01929 121.99635,58.01929 C121.49435,58.01929 121.10235,58.43129 121.10235,58.94329 C121.10235,59.45529 121.49435,59.86729 121.99635,59.86729 Z M120.76735,58.94329 C120.76735,58.27129 121.32635,57.73029 121.99635,57.73029 C122.66735,57.73029 123.22535,58.27129 123.22535,58.94329 C123.22535,59.61529 122.66635,60.15629 121.99635,60.15629 C121.32635,60.15629 120.76735,59.61529 120.76735,58.94329 L120.76735,58.94329 Z" id="path626" fill="#231F20" fill-rule="nonzero"></path>
            <polyline id="path628" fill="#231F20" fill-rule="nonzero" points="31.93735 48.45129 27.18835 48.45129 29.98135 33.80629 23.55635 48.45129 19.64535 48.45129 18.86335 33.89029 15.73535 48.45129 11.43335 48.45129 15.06435 29.40429 22.49535 29.40429 22.60635 41.19429 27.74635 29.40429 35.62335 29.40429 31.93735 48.45129"></polyline>
            <path d="M84.17335,48.25929 C82.88835,48.61129 81.88235,48.76329 80.82135,48.76329 C78.41935,48.76329 77.13335,47.56529 77.13335,45.36029 C77.13335,44.92529 77.13335,44.46029 77.24435,43.97029 L77.52335,42.45229 L77.74735,41.23129 L79.92635,29.40229 L84.56335,29.40229 L83.89335,32.95829 L86.29535,32.95829 L85.62535,36.72029 L83.22335,36.72029 L81.99435,43.18429 C81.93835,43.47329 81.93835,43.68029 81.93835,43.82529 C81.93835,44.62629 82.38535,44.97729 83.50235,44.97729 C84.06135,44.97729 84.45135,44.93229 84.78735,44.83229 L84.17335,48.25929" id="path630" fill="#231F20" fill-rule="nonzero"></path>
            <path d="M65.62635,37.85129 C65.62635,39.81229 66.68835,41.15629 69.20135,42.17029 C71.10135,42.94929 71.43535,43.17829 71.43535,43.88029 C71.43535,44.85029 70.59735,45.28329 68.69935,45.28329 C67.30235,45.28329 65.96135,45.09429 64.45335,44.66629 L63.83835,48.24429 L64.00635,48.27529 L64.90035,48.43529 C65.17935,48.48129 65.57135,48.52729 66.12935,48.57229 C67.24635,48.65629 68.14035,48.70329 68.75435,48.70329 C73.72735,48.70329 76.01835,47.06229 76.01835,43.52929 C76.01835,41.40729 75.06835,40.15629 72.72135,39.21629 C70.71035,38.43029 70.48735,38.26229 70.48735,37.53829 C70.48735,36.69829 71.26935,36.27129 72.77835,36.27129 C73.72735,36.27129 75.01235,36.36329 76.18535,36.50829 L76.85635,32.92129 C75.62735,32.75329 73.78335,32.61629 72.72135,32.61629 C67.41435,32.61629 65.57035,34.99729 65.62635,37.85129" id="path632" fill="#231F20" fill-rule="nonzero"></path>
            <path d="M43.89335,41.55229 C43.39135,41.49829 43.16735,41.48429 42.83135,41.48429 C40.20635,41.48429 38.86535,42.27729 38.86535,43.84129 C38.86535,44.80229 39.53535,45.42129 40.54135,45.42129 C42.44035,45.42229 43.83735,43.84229 43.89335,41.55229 L43.89335,41.55229 Z M47.07735,48.45129 L43.16635,48.45129 L43.27835,46.84129 C42.04935,48.11529 40.48535,48.71829 38.36135,48.71829 C35.79135,48.71829 34.05935,46.99329 34.05935,44.49029 C34.05935,40.71329 37.07635,38.51529 42.27135,38.51529 C42.83035,38.51529 43.50035,38.55229 44.17135,38.63629 C44.33835,38.12529 44.39435,37.90429 44.39435,37.62929 C44.39435,36.59929 43.55635,36.21729 41.37735,36.21729 C40.03635,36.21729 38.52835,36.38529 37.46635,36.65229 L36.85135,36.81229 L36.40435,36.91129 L37.07435,33.43229 C39.42035,32.83629 40.92835,32.60829 42.66035,32.60829 C46.68235,32.60829 48.80635,34.18029 48.80635,37.15629 C48.80635,37.91929 48.75035,38.49929 48.41535,40.22429 L47.46535,45.71829 L47.29835,46.70229 L47.18635,47.48829 L47.07435,48.03029 L47.07435,48.45129 L47.07735,48.45129 Z" id="path634" fill="#231F20" fill-rule="nonzero"></path>
            <path d="M60.15135,38.89629 C60.15135,38.57629 60.20735,38.30929 60.20735,38.11029 C60.20735,36.85129 59.36935,36.11029 57.97235,36.11029 C56.46435,36.11029 55.40235,37.10229 55.01135,38.88729 L60.15135,38.89629 L60.15135,38.89629 Z M62.44135,48.11529 C60.82135,48.54329 59.25635,48.74829 57.63635,48.74029 C52.38535,48.74029 49.70335,46.35929 49.70335,41.80429 C49.70335,36.48529 53.16735,32.57029 57.86035,32.57029 C61.71435,32.57029 64.17335,34.76029 64.17335,38.20129 C64.17335,39.34729 64.00535,40.45229 63.55835,42.02429 L54.28435,42.02429 C54.22835,42.26029 54.22835,42.36829 54.22835,42.51229 C54.22835,44.30529 55.62535,45.22129 58.36235,45.22129 C60.03835,45.22129 61.54735,44.92429 63.22335,44.24429 L62.44135,48.11529 L62.44135,48.11529 Z" id="path636" fill="#231F20" fill-rule="nonzero"></path>
            <path d="M107.58235,39.57629 C107.58235,37.95829 106.91235,36.42429 105.01335,36.42429 C102.61135,36.42429 101.15935,39.24829 101.15935,41.73529 C101.15935,43.83429 102.16435,45.24629 103.84135,45.21429 C104.84635,45.21429 107.02535,43.83329 107.41635,41.42129 C107.52635,40.86529 107.58235,40.24829 107.58235,39.57629 Z M112.33135,41.42929 C111.66035,46.58029 108.02935,48.86329 103.22535,48.86329 C97.97335,48.86329 95.85035,45.65829 95.85035,41.72829 C95.85035,36.23329 99.42635,32.51729 105.01335,32.51729 C109.87335,32.51729 112.44435,35.57729 112.44435,39.50829 C112.44335,40.46129 112.44335,40.52929 112.33135,41.42929 L112.33135,41.42929 Z" id="path638" fill="#231F20" fill-rule="nonzero"></path>
            <path d="M113.89535,46.07029 L114.06235,46.07029 C114.06235,46.07029 114.11935,46.07029 114.17435,46.04729 C114.22935,46.02429 114.23035,45.97129 114.23035,45.92529 C114.23035,45.88729 114.23035,45.84129 114.17435,45.81929 C114.17435,45.79629 114.06235,45.79629 114.00735,45.79629 L113.89535,45.79629 L113.89535,46.07029 L113.89535,46.07029 Z M113.89535,46.67329 L113.67135,46.67329 L113.67135,45.60529 L114.11835,45.60529 C114.17435,45.60529 114.28635,45.61329 114.39735,45.66729 C114.45335,45.72029 114.50835,45.82729 114.50835,45.93429 C114.50835,46.04829 114.45235,46.16329 114.34135,46.20829 L114.50835,46.67429 L114.22935,46.67429 L114.06135,46.25429 L113.89535,46.25429 L113.89535,46.67329 L113.89535,46.67329 Z M114.06235,47.06229 C114.56635,47.06229 114.95735,46.65029 114.95735,46.13829 C114.95735,45.63429 114.56635,45.22229 114.06235,45.22229 C113.56035,45.22229 113.11335,45.63429 113.11335,46.13829 C113.11335,46.65029 113.56035,47.06229 114.06235,47.06229 Z M112.83435,46.13829 C112.83435,45.47429 113.39335,44.93329 114.06335,44.93329 C114.73435,44.93329 115.29235,45.47429 115.29235,46.13829 C115.29235,46.81029 114.73335,47.35129 114.06335,47.35129 C113.39235,47.35129 112.83435,46.81029 112.83435,46.13829 L112.83435,46.13829 Z" id="path640" fill="#FFFFFF" fill-rule="nonzero"></path>
            <polyline id="path642" fill="#FFFFFF" fill-rule="nonzero" points="33.11035 47.35129 28.41735 47.35129 31.21035 32.70729 24.78535 47.35129 20.53935 47.35129 19.75735 32.79929 16.96435 47.35129 12.71835 47.35129 16.34935 28.30429 23.66735 28.30429 24.00235 40.10229 29.19835 28.30429 36.79635 28.30429 33.11035 47.35129"></polyline>
            <path d="M85.34735,47.16929 C84.06235,47.52029 83.05635,47.67229 81.99435,47.67229 C79.59235,47.67229 78.30635,46.46729 78.30635,44.27029 C78.30635,43.83429 78.36235,43.37029 78.41835,42.88129 L78.69735,41.36129 L78.92035,40.13229 L81.10035,28.30429 L85.73735,28.30429 L85.06735,31.86029 L87.46935,31.86029 L86.79835,35.63029 L84.39635,35.63029 L83.16735,42.09329 C83.11135,42.37629 83.11135,42.58929 83.11135,42.73529 C83.11135,43.53729 83.61435,43.88029 84.73135,43.88029 C85.23435,43.88029 85.62635,43.83429 85.96035,43.73429 L85.34735,47.16929" id="path644" fill="#FFFFFF" fill-rule="nonzero"></path>
            <path d="M97.35835,36.30929 L97.24735,35.82129 L98.19735,33.39429 C97.97235,33.37129 97.86135,33.36429 97.86135,33.34929 C97.58235,33.29529 97.47035,33.26529 97.41435,33.26529 C97.30335,33.23429 97.13535,33.22729 96.96835,33.22729 C95.40435,33.22729 94.34235,33.90629 92.88935,35.73829 L93.39335,32.98329 L88.53235,32.98329 L85.68235,48.45129 L90.32035,48.45129 C90.93435,44.90229 91.21435,42.88129 91.60535,41.20129 C92.21935,38.41629 94.28735,37.14929 95.79535,37.43129 C95.96235,37.46229 96.07435,37.46229 96.29735,37.54629 L96.57635,37.65229 L97.35835,36.30929" id="path646" fill="#231F20" fill-rule="nonzero"></path>
            <path d="M98.97835,31.99029 C98.58735,31.83729 98.53135,31.83729 98.47635,31.82229 C98.25135,31.76829 98.08435,31.73829 98.08435,31.73029 C97.91735,31.70729 97.74935,31.69229 97.58135,31.69229 C96.07335,31.69229 94.95635,32.37929 93.50335,34.21129 L93.95035,31.86029 L89.70435,31.86029 L86.85435,47.35129 L91.54735,47.35129 C93.22335,37.88129 93.94935,36.21829 96.18435,36.21829 C96.35235,36.21829 96.51935,36.23329 96.74335,36.25629 L97.30235,36.37029 L98.97835,31.99029" id="path648" fill="#FFFFFF" fill-rule="nonzero"></path>
            <path d="M66.79835,36.76029 C66.79835,38.71329 67.91535,40.06429 70.43035,41.07929 C72.32935,41.85029 72.60935,42.07929 72.60935,42.78929 C72.60935,43.75029 71.77135,44.18529 69.92735,44.18529 C68.47435,44.18529 67.18935,43.99429 65.68135,43.57429 L65.01135,47.14629 L65.23435,47.18329 L66.07235,47.33529 C66.35135,47.39029 66.79935,47.43529 67.35735,47.47429 C68.47435,47.55829 69.31235,47.60329 69.92735,47.60329 C74.95435,47.60329 77.24535,45.97029 77.24535,42.43729 C77.24535,40.30829 76.29635,39.06429 73.89335,38.12529 C71.93835,37.33929 71.71335,37.16429 71.71335,36.43829 C71.71335,35.60629 72.49635,35.17929 74.00435,35.17929 C74.95335,35.17929 76.18335,35.26329 77.41235,35.40829 L78.08235,31.82229 C76.85335,31.65429 75.01035,31.51629 73.89335,31.51629 C68.64235,31.51729 66.79835,33.89829 66.79835,36.76029" id="path650" fill="#FFFFFF" fill-rule="nonzero"></path>
            <path d="M44.89935,40.45329 C44.39635,40.40029 44.17235,40.39229 43.83735,40.39229 C41.21135,40.39229 39.87035,41.18529 39.87035,42.74929 C39.87035,43.71129 40.48535,44.32929 41.54635,44.32929 C43.44635,44.33029 44.78735,42.74229 44.89935,40.45329 L44.89935,40.45329 Z M48.30635,47.35129 L44.39535,47.35129 L44.50735,45.74929 C43.33435,47.02229 41.71435,47.61829 39.59035,47.61829 C37.07635,47.61829 35.34435,45.89329 35.34435,43.39029 C35.34435,39.61929 38.36135,37.41529 43.55635,37.41529 C44.05935,37.41529 44.72935,37.46029 45.45535,37.53729 C45.56735,37.02529 45.62235,36.81229 45.62235,36.53029 C45.62235,35.50729 44.78435,35.12629 42.60535,35.12629 C41.26435,35.12629 39.75535,35.28629 38.75035,35.55329 L38.08035,35.72129 L37.68935,35.82129 L38.30435,32.33329 C40.65035,31.73829 42.15835,31.51729 43.89035,31.51729 C47.91235,31.51729 50.03635,33.08929 50.03635,36.05829 C50.03635,36.82129 49.98035,37.40129 49.70135,39.12529 L48.69535,44.62829 L48.52835,45.61229 L48.41635,46.39829 L48.36035,46.93129 L48.30635,47.35129 L48.30635,47.35129 Z" id="path652" fill="#FFFFFF" fill-rule="nonzero"></path>
            <path d="M61.15635,37.80529 L61.15635,37.01129 C61.15635,35.75229 60.37435,35.01929 58.97735,35.01929 C57.46935,35.01929 56.40735,36.00329 55.96035,37.79729 L61.15635,37.80529 L61.15635,37.80529 Z M63.61535,47.02329 C62.05035,47.44329 60.48635,47.64929 58.86535,47.64929 C53.61435,47.64929 50.87635,45.26829 50.87635,40.70529 C50.87635,35.39429 54.33935,31.47929 59.03235,31.47929 C62.88735,31.47929 65.34535,33.66929 65.34535,37.10329 C65.34535,38.24829 65.17735,39.36229 64.78535,40.93329 L55.51235,40.93329 C55.45635,41.17029 55.45635,41.27729 55.45635,41.42129 C55.45635,43.21529 56.85235,44.13129 59.53435,44.13129 C61.21035,44.13129 62.71935,43.82529 64.39435,43.14629 L63.61535,47.02329 L63.61535,47.02329 Z" id="path654" fill="#FFFFFF" fill-rule="nonzero"></path>
            <path d="M108.69935,38.34729 C108.69935,36.72929 108.02935,35.19629 106.13035,35.19629 C103.72835,35.19629 102.27635,38.01929 102.27635,40.50729 C102.27635,42.61329 103.28235,44.02629 104.95835,43.99429 C105.96435,43.99429 108.14235,42.61329 108.53335,40.20129 C108.64435,39.63629 108.69935,39.01929 108.69935,38.34729 Z M113.56035,40.33229 C112.83335,45.48229 109.25735,47.77129 104.45435,47.77129 C99.14635,47.77129 97.02335,44.55829 97.02335,40.62829 C97.02335,35.14129 100.65435,31.41829 106.24235,31.41829 C111.10135,31.41829 113.67235,34.47829 113.67235,38.40829 C113.67235,39.36929 113.67235,39.43129 113.56035,40.33229 L113.56035,40.33229 Z" id="path656" fill="#FFFFFF" fill-rule="nonzero"></path>
        </g>
    </g>
</svg>