<?xml version="1.0" encoding="UTF-8" standalone="no"?>
<svg width="118px" height="92px" viewBox="0 0 118 92" version="1.1" xmlns="http://www.w3.org/2000/svg" xmlns:xlink="http://www.w3.org/1999/xlink">
    <!-- Generator: Sketch 43.1 (39012) - http://www.bohemiancoding.com/sketch -->
    <title>Group</title>
    <desc>Created with Sketch.</desc>
    <defs></defs>
    <g id="Page-1" stroke="none" stroke-width="1" fill="none" fill-rule="evenodd">
        <g id="mc_vrt_pos" fill-rule="nonzero">
            <g id="Group">
                <path d="M21.9,91.1 L21.9,85.1 C21.9,82.8 20.5,81.3 18.1,81.3 C16.9,81.3 15.6,81.7 14.7,83 C14,81.9 13,81.3 11.5,81.3 C10.5,81.3 9.5,81.6 8.7,82.7 L8.7,81.5 L6.6,81.5 L6.6,91.1 L8.7,91.1 L8.7,85.8 C8.7,84.1 9.6,83.3 11,83.3 C12.4,83.3 13.1,84.2 13.1,85.8 L13.1,91.1 L15.2,91.1 L15.2,85.8 C15.2,84.1 16.2,83.3 17.5,83.3 C18.9,83.3 19.6,84.2 19.6,85.8 L19.6,91.1 L21.9,91.1 Z M53,81.5 L49.6,81.5 L49.6,78.6 L47.5,78.6 L47.5,81.5 L45.6,81.5 L45.6,83.4 L47.5,83.4 L47.5,87.8 C47.5,90 48.4,91.3 50.8,91.3 C51.7,91.3 52.7,91 53.4,90.6 L52.8,88.8 C52.2,89.2 51.5,89.3 51,89.3 C50,89.3 49.6,88.7 49.6,87.7 L49.6,83.4 L53,83.4 L53,81.5 Z M70.8,81.3 C69.6,81.3 68.8,81.9 68.3,82.7 L68.3,81.5 L66.2,81.5 L66.2,91.1 L68.3,91.1 L68.3,85.7 C68.3,84.1 69,83.2 70.3,83.2 C70.7,83.2 71.2,83.3 71.6,83.4 L72.2,81.4 C71.8,81.3 71.2,81.3 70.8,81.3 L70.8,81.3 Z M43.9,82.3 C42.9,81.6 41.5,81.3 40,81.3 C37.6,81.3 36,82.5 36,84.4 C36,86 37.2,86.9 39.3,87.2 L40.3,87.3 C41.4,87.5 42,87.8 42,88.3 C42,89 41.2,89.5 39.8,89.5 C38.4,89.5 37.3,89 36.6,88.5 L35.6,90.1 C36.7,90.9 38.2,91.3 39.7,91.3 C42.5,91.3 44.1,90 44.1,88.2 C44.1,86.5 42.8,85.6 40.8,85.3 L39.8,85.2 C38.9,85.1 38.2,84.9 38.2,84.3 C38.2,83.6 38.9,83.2 40,83.2 C41.2,83.2 42.4,83.7 43,84 L43.9,82.3 Z M99.7,81.3 C98.5,81.3 97.7,81.9 97.2,82.7 L97.2,81.5 L95.1,81.5 L95.1,91.1 L97.2,91.1 L97.2,85.7 C97.2,84.1 97.9,83.2 99.2,83.2 C99.6,83.2 100.1,83.3 100.5,83.4 L101.1,81.4 C100.7,81.3 100.1,81.3 99.7,81.3 L99.7,81.3 Z M72.9,86.3 C72.9,89.2 74.9,91.3 78,91.3 C79.4,91.3 80.4,91 81.4,90.2 L80.4,88.5 C79.6,89.1 78.8,89.4 77.9,89.4 C76.2,89.4 75,88.2 75,86.3 C75,84.5 76.2,83.3 77.9,83.2 C78.8,83.2 79.6,83.5 80.4,84.1 L81.4,82.4 C80.4,81.6 79.4,81.3 78,81.3 C74.9,81.3 72.9,83.4 72.9,86.3 L72.9,86.3 Z M92.3,86.3 L92.3,81.5 L90.2,81.5 L90.2,82.7 C89.5,81.8 88.5,81.3 87.2,81.3 C84.5,81.3 82.4,83.4 82.4,86.3 C82.4,89.2 84.5,91.3 87.2,91.3 C88.6,91.3 89.6,90.8 90.2,89.9 L90.2,91.1 L92.3,91.1 L92.3,86.3 Z M84.6,86.3 C84.6,84.6 85.7,83.2 87.5,83.2 C89.2,83.2 90.4,84.5 90.4,86.3 C90.4,88 89.2,89.4 87.5,89.4 C85.7,89.3 84.6,88 84.6,86.3 L84.6,86.3 Z M59.5,81.3 C56.7,81.3 54.7,83.3 54.7,86.3 C54.7,89.3 56.7,91.3 59.6,91.3 C61,91.3 62.4,90.9 63.5,90 L62.5,88.5 C61.7,89.1 60.7,89.5 59.7,89.5 C58.4,89.5 57.1,88.9 56.8,87.2 L63.9,87.2 L63.9,86.4 C64,83.3 62.2,81.3 59.5,81.3 L59.5,81.3 Z M59.5,83.1 C60.8,83.1 61.7,83.9 61.9,85.4 L56.9,85.4 C57.1,84.1 58,83.1 59.5,83.1 L59.5,83.1 Z M111.6,86.3 L111.6,77.7 L109.5,77.7 L109.5,82.7 C108.8,81.8 107.8,81.3 106.5,81.3 C103.8,81.3 101.7,83.4 101.7,86.3 C101.7,89.2 103.8,91.3 106.5,91.3 C107.9,91.3 108.9,90.8 109.5,89.9 L109.5,91.1 L111.6,91.1 L111.6,86.3 Z M103.9,86.3 C103.9,84.6 105,83.2 106.8,83.2 C108.5,83.2 109.7,84.5 109.7,86.3 C109.7,88 108.5,89.4 106.8,89.4 C105,89.3 103.9,88 103.9,86.3 L103.9,86.3 Z M33.7,86.3 L33.7,81.5 L31.6,81.5 L31.6,82.7 C30.9,81.8 29.9,81.3 28.6,81.3 C25.9,81.3 23.8,83.4 23.8,86.3 C23.8,89.2 25.9,91.3 28.6,91.3 C30,91.3 31,90.8 31.6,89.9 L31.6,91.1 L33.7,91.1 L33.7,86.3 Z M25.9,86.3 C25.9,84.6 27,83.2 28.8,83.2 C30.5,83.2 31.7,84.5 31.7,86.3 C31.7,88 30.5,89.4 28.8,89.4 C27,89.3 25.9,88 25.9,86.3 Z" id="XMLID_1775_" fill="#000000"></path>
                <g id="XMLID_328_">
                    <rect id="Rectangle-path" fill="#FF5F00" x="43.2" y="8.6" width="31.5" height="56.6"></rect>
                    <path d="M45.2,36.9 C45.2,25.4 50.6,15.2 58.9,8.6 C52.8,3.8 45.1,0.9 36.7,0.9 C16.8,0.9 0.7,17 0.7,36.9 C0.7,56.8 16.8,72.9 36.7,72.9 C45.1,72.9 52.8,70 58.9,65.2 C50.6,58.7 45.2,48.4 45.2,36.9 Z" id="XMLID_330_" fill="#EB001B"></path>
                    <path d="M117.2,36.9 C117.2,56.8 101.1,72.9 81.2,72.9 C72.8,72.9 65.1,70 59,65.2 C67.4,58.6 72.7,48.4 72.7,36.9 C72.7,25.4 67.3,15.2 59,8.6 C65.1,3.8 72.8,0.9 81.2,0.9 C101.1,0.9 117.2,17.1 117.2,36.9 Z" id="Shape" fill="#F79E1B"></path>
                </g>
            </g>
        </g>
    </g>
</svg>