<?xml version="1.0" encoding="utf-8"?>
<!-- Generator: Adobe Illustrator 19.0.0, SVG Export Plug-In . SVG Version: 6.00 Build 0)  -->
<svg version="1.1" id="Слой_1" xmlns="http://www.w3.org/2000/svg" xmlns:xlink="http://www.w3.org/1999/xlink" x="0px" y="0px"
	 viewBox="-1358 2797.2 118 76.1" style="enable-background:new -1358 2797.2 118 76.1;" xml:space="preserve">
<style type="text/css">
	.st0{opacity:0.75;fill:#BABABB;}
	.st1{opacity:0.5;fill:#BABABB;}
	.st2{fill:#BABABB;}
	.st3{fill:#BABABB;stroke:#BCBBBC;stroke-width:0.15;stroke-miterlimit:10;}
</style>
<title>1FAD4F36-DCBF-4D9B-89CA-BF214F2E8CFD</title>
<desc>Created with sketchtool.</desc>
<g>
	<path class="st0" d="M-1310.8,2832.8c0-6.5,5.3-11.8,11.8-11.8v-23.8l-59,59h0.3l47.7-19
		C-1310.5,2835.8-1310.8,2834.3-1310.8,2832.8z"/>
	<path class="st1" d="M-1287.2,2832.8c0,1.6-0.3,3-0.8,4.4l47.5,18.9l0.5,0.1l-59-59v23.8C-1292.5,2821-1287.2,2826.3-1287.2,2832.8
		z"/>
	<polygon class="st2" points="-1357.7,2856.2 -1358,2856.3 -1240,2856.3 -1240.3,2856.2 	"/>
	<path class="st2" d="M-1296.5,2834.2c0.5-0.3,0.7-0.8,0.7-1.6c0-0.7-0.2-1.2-0.7-1.5c-0.5-0.3-1.3-0.4-2.4-0.4h-2v4h2.2
		C-1297.7,2834.7-1296.9,2834.5-1296.5,2834.2z"/>
	<path class="st2" d="M-1295.5,2839.8c0-1.5-1-2.2-3.1-2.2h-2.3v4.6h2.4c1,0,1.8-0.2,2.3-0.6
		C-1295.7,2841.2-1295.5,2840.6-1295.5,2839.8z"/>
	<path class="st2" d="M-1240.3,2856.2l-0.3-0.1l-47.5-18.9c0.5-1.4,0.8-2.8,0.8-4.4c0-6.5-5.3-11.8-11.8-11.8s-11.8,5.3-11.8,11.8
		c0,1.5,0.3,3,0.8,4.4l-47.7,19H-1240.3z M-1304.6,2827.7h5.5c2.5,0,4.3,0.4,5.5,1.1s1.7,1.8,1.7,3.4c0,1.1-0.2,1.9-0.7,2.6
		s-1.2,1.1-2,1.2v0.1c1.1,0.2,1.9,0.7,2.4,1.4s0.7,1.6,0.7,2.7c0,1.6-0.6,2.9-1.7,3.8c-1.2,0.9-2.7,1.4-4.8,1.4h-6.6V2827.7z"/>
	<path id="Fill-7" class="st3" d="M-1344.6,2869.7c0,1.1-0.4,1.9-1.2,2.5c-0.8,0.6-1.9,0.9-3.2,0.9s-2.4-0.2-3.4-0.7v-2.3
		c0.8,0.4,1.5,0.6,2,0.8c0.6,0.1,1.1,0.2,1.5,0.2c0.6,0,1-0.1,1.3-0.3c0.3-0.2,0.4-0.5,0.4-0.9c0-0.2-0.1-0.4-0.2-0.6
		c-0.1-0.2-0.3-0.4-0.6-0.5c-0.3-0.2-0.8-0.4-1.5-0.8c-0.7-0.3-1.3-0.7-1.6-1c-0.4-0.3-0.7-0.7-0.9-1.1c-0.2-0.4-0.3-0.9-0.3-1.5
		c0-1.1,0.4-1.9,1.1-2.5c0.7-0.6,1.7-0.9,3-0.9c0.6,0,1.2,0.1,1.8,0.2c0.6,0.1,1.2,0.4,1.8,0.6l-0.8,2c-0.6-0.3-1.2-0.4-1.6-0.5
		c-0.4-0.1-0.8-0.2-1.2-0.2c-0.5,0-0.8,0.1-1.1,0.3c-0.3,0.2-0.4,0.5-0.4,0.9c0,0.2,0.1,0.4,0.2,0.6c0.1,0.2,0.3,0.3,0.5,0.5
		c0.2,0.2,0.8,0.4,1.6,0.8c1.1,0.5,1.9,1.1,2.3,1.6C-1344.8,2868.3-1344.6,2868.9-1344.6,2869.7"/>
	<polygon id="Fill-9" class="st3" points="-1331.4,2873 -1338.2,2873 -1338.2,2861.1 -1331.4,2861.1 -1331.4,2863.2 -1335.7,2863.2 
		-1335.7,2865.8 -1331.7,2865.8 -1331.7,2867.9 -1335.7,2867.9 -1335.7,2870.9 -1331.4,2870.9 	"/>
	<path id="Fill-11" class="st3" d="M-1319.6,2863.1c-1,0-1.7,0.4-2.2,1.1s-0.8,1.7-0.8,3c0,2.7,1,4,3,4c0.8,0,1.9-0.2,3-0.6v2.1
		c-1,0.4-2.1,0.6-3.3,0.6c-1.7,0-3.1-0.5-4-1.6c-0.9-1-1.4-2.6-1.4-4.5c0-1.2,0.2-2.3,0.7-3.3c0.5-0.9,1.1-1.6,1.9-2.1
		c0.8-0.5,1.8-0.7,3-0.7c1.2,0,2.3,0.3,3.5,0.8l-0.8,2.1c-0.4-0.2-0.9-0.4-1.3-0.6C-1318.7,2863.1-1319.2,2863.1-1319.6,2863.1"/>
	<path id="Fill-14" class="st3" d="M-1300.1,2861.1v7.7c0,0.9-0.2,1.6-0.6,2.3c-0.4,0.7-1,1.2-1.7,1.5c-0.7,0.4-1.6,0.5-2.6,0.5
		c-1.5,0-2.7-0.4-3.6-1.2c-0.8-0.8-1.3-1.9-1.3-3.2v-7.7h2.5v7.3c0,0.9,0.2,1.6,0.6,2c0.4,0.4,1,0.6,1.8,0.6c0.8,0,1.4-0.2,1.8-0.6
		c0.4-0.4,0.6-1.1,0.6-2v-7.3h2.5V2861.1z"/>
	<path id="Fill-17" class="st3" d="M-1290.5,2866.4h0.8c0.8,0,1.4-0.1,1.8-0.4s0.6-0.7,0.6-1.3c0-0.6-0.2-1-0.6-1.2s-1-0.4-1.8-0.4
		h-0.8V2866.4z M-1290.5,2868.5v4.6h-2.5v-11.9h3.5c1.6,0,2.8,0.3,3.6,0.9c0.8,0.6,1.2,1.5,1.2,2.7c0,0.7-0.2,1.3-0.6,1.9
		c-0.4,0.5-0.9,1-1.6,1.3c1.8,2.7,3,4.4,3.5,5.2h-2.8l-2.9-4.6h-1.4V2868.5z"/>
	<polygon id="Fill-19" class="st3" points="-1277.8,2873 -1275.3,2873 -1275.3,2861.1 -1277.8,2861.1 	"/>
	<polygon id="Fill-21" class="st3" points="-1263.5,2873 -1266,2873 -1266,2863.2 -1269.3,2863.2 -1269.3,2861.1 -1260.2,2861.1 
		-1260.2,2863.2 -1263.5,2863.2 	"/>
	<polygon id="Fill-22" class="st3" points="-1250.5,2866 -1248,2861.1 -1245.3,2861.1 -1249.2,2868.4 -1249.2,2873 -1251.8,2873 
		-1251.8,2868.5 -1255.7,2861.1 -1253,2861.1 	"/>
</g>
</svg>
