<?xml version="1.0" encoding="utf-8"?>
<!-- Generator: Adobe Illustrator 19.0.0, SVG Export Plug-In . SVG Version: 6.00 Build 0)  -->
<svg version="1.1" id="Layer_1" xmlns="http://www.w3.org/2000/svg" xmlns:xlink="http://www.w3.org/1999/xlink" x="0px" y="0px"
	 viewBox="0 0 522.7 533.2" style="enable-background:new 0 0 522.7 533.2;" xml:space="preserve">
<style type="text/css">
	.st0{fill:#ABABAB;}
</style>
<g id="XMLID_95_">
	<path id="XMLID_96_" class="st0" d="M240,198.1c-0.9-23.2,17.6-41.7,40.3-39.9c18.5,1.4,32.5,15.8,33.8,33.8
		c1.9,23.2-16.7,41.7-39.9,39.9c-17.6-1.4-32.5-15.8-33.8-33.8L240,198.1z M434.7,193.5v-1.9c-0.9-48.2-23.2-90.9-58.4-118.7
		c-3.2-3.2-4.6-8.3-1.9-12.1l9.3-17.6c9.3-13.9,3.7-31.5-9.3-39.4H373c-13.9-7.9-31.5-3.2-39.4,10.7l-13.9,23.2
		c-1.4,2.8-5.6,4.6-9.3,3.7c-8.3-1.4-15.3-2.3-25-2.8c-25.5-1.4-54.2,4.6-64.9,49.6c-8.3,34.8-6.5,51.9-4.6,60.3
		c0.9,3.2,4.6,4.6,6.5,1.9c9.3-13,24.1-22.3,43.6-26c3.7,0,12.1-1.4,20.9-0.9c30.6,2.3,68.2,14.8,108,46.4
		c17.2,13.9,27.8,25,34.8,33.4c1.9,2.3,5.6,0.9,5.6-2.3v-3.7v-2.3L434.7,193.5z M267.8,272.3c2.3-2.3,0.9-6-1.9-6.5
		c-15.8-1.9-31.1-9.3-44-24.6c-2.8-2.8-7.9-9.3-11.6-17.6c-13.9-27.8-21.3-66.3-13.9-115.9c3.7-22.3,7.4-37.1,11.6-47.3
		c0.9-2.8-2.3-5.6-4.6-3.7c-1.4,0-2.3,0.9-3.2,1.9h-2.3c0,0.9-0.9,1.4-1.9,1.4c-40.8,25-66.8,65.8-74.2,110.3c0,4.6-4.6,8.3-9.3,8.3
		H93.9c-16.2,0-27.8,12.5-27.8,28.7c0,16.7,11.6,29.7,27.8,29.7h25.5c4.6,0,7.4,2.8,8.3,6.5c2.3,8.3,4.6,14.8,9.3,23.2
		c12.1,23.2,30.1,43.1,76,31.5c32.5-8.3,47.3-20.4,53.8-26.4L267.8,272.3z M395.3,300.1c5.6-5.6,10.2-11.1,15.3-19.5
		c13.9-21.3,22.3-47.3-10.7-81.1c-23.2-24.6-41.7-31.1-49.6-33.4c-2.8,0-5.6,2.3-4.6,4.6c6.5,15.3,7.4,32.5,0.9,51
		c-1.4,3.2-4.6,11.1-9.3,18.5c-17.6,25-47.3,51-94.6,69.5c-20.4,8.3-35.2,12.1-46.4,13.9c-2.3,0-3.2,4.6-0.9,6
		c1.4,0,2.3,1.4,3.7,1.9l1.9,1.4c0,0,1.4,0,1.9,0.9c41.7,23.2,90.4,24.6,132.1,9.3c4.6-2.3,9.3,0,11.1,3.7l10.2,17.2
		c7.4,13.9,25,18.5,38.9,10.7c13.9-8.3,19.5-26,11.6-39.9L393,311.7c-1.9-3.2-1.4-7.4,1.4-10.7L395.3,300.1z"/>
</g>
<g id="XMLID_80_">
	<path id="XMLID_81_" class="st0" d="M33.1,445.9L0,532h19.9l6.7-17.6h31.1l6.5,17.6h20l-33.1-86.1H33.1L33.1,445.9z M50.6,496.8
		H33.8l8.4-21.6L50.6,496.8z M176.3,469.4c-3.5-2.3-7.6-3.5-12.3-3.5c-4.4,0-8.8,1.2-12.3,3.2c-3,1.8-5.6,3.9-7.9,6.5
		c-1.8-2.6-4-4.9-6.7-6.5c-3.5-1.8-7-3-11.3-3c-3.9,0-7.7,0.7-11.3,2.3c-2.3,1.1-4.7,2.3-6.5,3.9V467H88.8v65h19.3v-28.8
		c0-5.6,0.7-9.7,1.8-12.3c0.7-2.3,2.1-4.2,3.9-5.3c1.8-1.8,3.9-2.1,6-2.1c1.8,0,3.5,0.4,4.6,1.4c1.4,0.9,2.6,2.5,3.5,4.6
		c0.5,2.3,1.2,6,1.2,11.3V532h17.6v-29.2c0-5.6,0.9-9.7,1.8-12.3c0.9-2.1,2.5-3.9,4.2-5.3c1.8-1.2,3.5-1.8,6-1.8c3,0,5.3,0.9,7,2.8
		c0.9,1.8,2.3,4.9,2.3,13V532h17.6v-37.4c0-7.6-0.4-13-1.8-16.5c-1.8-3.5-3.9-6.3-7.6-8.4L176.3,469.4z M233.5,465.9
		c-3.9,0-7.7,0.9-11.1,2.5c-2.3,0.9-5.3,2.3-7,3.9v-28.1h-17.6V532h17.6v-4.4c3.5,1.8,4.9,3,7,3.9c3.2,1.4,7,1.8,10.5,1.8
		c8.4,0,15.8-3,21.8-9.5c6-6.2,9.1-14.1,9.1-23.7c0-9.7-3-17.9-8.8-24.3c-6-6.3-13.2-9.5-21.6-9.5L233.5,465.9z M245.1,499.7
		c0,4.9-1.2,8.8-4,11.8c-2.8,3.5-6.3,4.7-10.5,4.7s-7.7-1.4-10.5-4.4c-3-3-4.4-7-4.4-12s1.4-8.8,4.4-11.6c2.8-3,6.3-4.4,10.5-4.4
		c4.4,0,7.7,1.4,10.5,4.4c3,3.2,4.2,7,4.2,11.6L245.1,499.7z M280.8,442.7c-3,0-5.8,1.1-8.1,3.5c-2.1,1.8-3.5,4.7-3.5,7.9
		c0,3.2,1.4,6,3.5,8.3c2.3,2.3,5.3,3.5,8.3,3.5c3.2,0,5.8-1.1,8.1-3.5c2.1-2.1,3.5-4.9,3.5-8.1c0-3.2-1.4-6-3.5-8.3
		c-2.3-2.5-5.3-3.5-8.3-3.5V442.7z M272,532h17.6v-65H272V532z M325.9,491.6l-5.3-2.6c-3.5-1.8-4-2.3-4.2-2.5
		c-0.5-0.5-0.5-1.1-0.5-1.2c0-0.4,0-0.9,0.7-1.2c0.7-0.5,1.8-0.9,3-0.9c2.6,0,5.8,1.8,9.1,5.3l1.4,1.4l11.4-12l-0.9-1.1
		c-2.5-3.5-5.8-6.2-9.5-7.9c-3.5-2.1-7.6-3-11.8-3c-6.2,0-11.3,1.8-15.3,5.6c-4,3.5-6.2,8.3-6.2,13.5c0,8.1,5.3,14.9,15.8,20.2
		l5.3,2.5c3.5,2.1,5.6,4,5.6,5.6c0,0.4,0,1.1-1.2,1.8c-1.8,1.8-4.9,1.8-9.3-0.5c-2.1-1.4-4-2.8-5.8-4.7l-1.4-1.8l-11.8,13l0.9,1.1
		c5.6,7.4,13.4,11.1,22.9,11.1c7,0,12.7-1.8,16.9-5.8c4.4-3.9,6.7-8.8,6.7-14.8c0-4.6-1.2-8.8-3.5-11.8c-2.6-3.5-6.7-6.5-13-9.5
		V491.6z M395,472.2c-1.8-1.8-3.9-3-6-3.9c-3.5-1.8-7-2.3-11.1-2.3c-8.4,0-15.5,3.2-21.4,9.5c-5.8,6.3-8.8,14.6-8.8,24.3
		c0,9.5,3.2,17.6,9.1,23.9c6.2,6.7,13.4,9.8,21.8,9.8c3.9,0,7-0.5,10.2-1.8c2.1-1.1,4.4-2.5,6.2-4v4.4h19.3v-65H395v5.3V472.2z
		 M392.2,488c2.8,3,4.2,6.7,4.2,11.6s-1.2,8.8-4,12c-3,3-6.3,4.4-10.5,4.4c-4.4,0-7.7-1.4-10.5-4.6c-3-2.8-4.4-6.7-4.4-11.6
		c0-4.7,1.4-8.4,4.2-11.6c2.8-3,6.3-4.4,10.5-4.4c4.4,0,7.9,1.4,10.5,4.4V488z M440.9,442.7c-4.7,0-8.8,1.1-11.3,3.5
		c-2.6,1.8-4.2,4.7-4.7,8.4c0,1.4-0.4,5.3-0.4,12.3h-4.7v17.6h5.3V532h17.6v-47.5h10.5V467h-9.7l0.4-5.3c0-1.8,0.5-2.1,0.5-2.1
		c0-0.9,3-0.9,7,0l1.8,0.9v-14.9l-0.9-0.4c-4-1.8-7.7-2.3-11.1-2.3L440.9,442.7z M522.7,501.2c0-10.5-3.2-19-9.5-25.5
		c-6.3-6.5-14.6-9.7-24.6-9.7c-9.5,0-17.6,3.5-23.7,9.7c-6.2,6.5-9.3,14.6-9.3,24.6c0,9.3,3.2,17.2,9.5,23.6
		c6.5,6.3,14.8,9.5,24.6,9.5c6.5,0,12.3-1.1,16.9-3.5c4.7-2.1,8.8-5.8,12.3-10.5l1.1-1.8l-15.8-7.4l-0.9,0.9
		c-3.9,3.5-8.3,5.3-13.5,5.3c-4.2,0-7.9-1.2-10.5-3.5c-2.3-1.8-3.9-3.9-4.7-7.4h48.3v-4.4V501.2z M475.2,489.8
		c1.4-1.8,2.6-3.5,4-4.4c2.8-2.1,6.2-3,10-3c3.5,0,6.7,0.7,9.3,2.6c1.8,1.8,3.5,3.2,4.4,4.9h-27.8V489.8z"/>
</g>
</svg>
