<?xml version="1.0" encoding="utf-8"?>
<!-- Generator: Adobe Illustrator 19.0.0, SVG Export Plug-In . SVG Version: 6.00 Build 0)  -->
<svg version="1.1" id="Layer_1" xmlns="http://www.w3.org/2000/svg" xmlns:xlink="http://www.w3.org/1999/xlink" x="0px" y="0px"
	 viewBox="0 0 738.2 91.6" style="enable-background:new 0 0 738.2 91.6;" xml:space="preserve">
<style type="text/css">
	.st0{fill:#ABABAB;}
</style>
<g id="XMLID_80_">
	<path id="XMLID_87_" class="st0" d="M0,45.6C0,21.1,15.4,0,44.6,0c11.1,0,19.8,3.3,29.1,11.3c3.5,3.2,3.8,8.7,0.3,12.3
		c-3.5,3-8.7,2.7-11.7-0.3c-5.2-5.5-10.6-7-17.7-7c-19.6,0-29,13.9-29,29.3c0,15.8,9.3,30.2,29,30.2c7.3,0,13.9-2.9,19.8-8.1
		c3.9-3,9.4-1.6,11.7,1.6c2,2.8,3,7.5-1.4,11.9c-8.9,8.2-19.6,9.9-30.1,9.9C13.9,91.1,0,70.1,0,45.6z M107.1,81.9
		c0,11.1-16.9,11.4-16.9,0.3V10c0-4.4,3.5-7.7,7.6-7.7h33.8c32.3,0,38.9,43.2,11.9,54L160.4,77c6.6,9.8-6.6,19.2-14.2,9.5L127,59
		h-19.9C107.1,59,107.1,81.9,107.1,81.9z M107.1,44.3h24.5c16.5,0,17.5-26.7,0-26.7h-24.5V44.3z M167.5,14.5
		C161.5,6.3,175.1-4,181.7,6L204,39.1L226.5,6c6.8-9.3,20.9,0,14.2,8.5L211.9,56v26.3c0,11.2-16.8,10.9-16.8-0.1V56.1
		C195.1,56.1,167.5,14.5,167.5,14.5z M251.8,10c0-4.2,3.3-8.7,8.7-8.7h29.3c16.5,0,31.3,11.1,31.3,32.3c0,20.1-14.9,31.3-31.3,31.3
		h-21.2v16.8c0,5.6-3.5,8.7-8.1,8.7c-4.2,0-8.7-3.2-8.7-8.7C251.8,81.6,251.8,10,251.8,10z M268.6,17.1v31.7h21.2
		c8.5,0,15.2-7.5,15.2-15.4c0-8.9-6.8-16.3-15.2-16.3C289.8,17.1,268.6,17.1,268.6,17.1z M356.4,18.2h-22.2
		c-11.1,0-11.1-16.3,0-16.3h60.1c11.3,0,11.3,16.3,0,16.3h-21.1v64.2c0,11.1-16.8,11.3-16.8,0L356.4,18.2L356.4,18.2z M453.3,91.5
		c-23.5,1-47.9-14.6-47.9-45.7c0-31.3,24.4-46.6,47.9-46.6c22.2,1.1,45.5,16.5,45.5,46.6S475.5,91.5,453.3,91.5z M451.8,15.7
		c-14.2,0-29.7,10-29.7,30.1c0,19.9,15.5,30.1,29.7,30.1c14.6,0,30.2-10.1,30.2-30.1C482.1,25.7,466.5,15.7,451.8,15.7z"/>
	<path id="XMLID_81_" class="st0" d="M512.9,10c0-4.2,3.3-8.7,8.7-8.7h29.3c16.5,0,31.3,11.1,31.3,32.3c0,20.1-14.9,31.3-31.3,31.3
		h-21.3v16.8c0,5.6-3.5,8.7-8.1,8.7c-4.2,0-8.7-3.2-8.7-8.7L512.9,10L512.9,10L512.9,10z M529.6,17.1v31.7h21.2
		c8.5,0,15.2-7.5,15.2-15.4c0-8.9-6.8-16.3-15.2-16.3H529.6z M584.7,90.2c-4.1-2.3-6.6-6.8-4.1-12.2l36.4-71.2
		c3.5-6.8,12.6-7,15.8,0L668.7,78c5.2,9.9-10.1,17.7-14.7,7.9l-5.6-11.2h-46.8l-5.5,11.2C594.1,90.2,589.3,91.1,584.7,90.2
		L584.7,90.2z M639.3,57.9L625,26.6l-15.6,31.3H639.3z M663.3,14.5C657.3,6.3,670.9-4,677.5,6l22.2,33.2L722.3,6
		c6.8-9.3,20.9,0,14.2,8.5L707.7,56v26.3c0,11.2-16.8,10.9-16.8-0.1V56.1C690.9,56.1,663.3,14.5,663.3,14.5z"/>
</g>
</svg>
