<?xml version="1.0" encoding="utf-8"?>
<!-- Generator: Adobe Illustrator 19.1.1, SVG Export Plug-In . SVG Version: 6.00 Build 0)  -->
<svg version="1.1" id="Layer_1" xmlns="http://www.w3.org/2000/svg" xmlns:xlink="http://www.w3.org/1999/xlink" x="0px" y="0px"
	 viewBox="637 213.8 1886.4 366.2" style="enable-background:new 637 213.8 1886.4 366.2;" xml:space="preserve">
<style type="text/css">
	.st0{fill:#BABABB;}
</style>
<g>
	<g>
		<path class="st0" d="M1155.3,575.2h-78.5V403.8h-21.9v171.5h-78.5V217.9h78.5v142.6h21.9V217.9h78.5V575.2z"/>
		<path class="st0" d="M1338.2,575.2h-62.8V564c-5.3,10.1-20.5,15.2-45.6,15.2c-38.7,0-58.1-15.1-58.1-45.4v-58
			c0-13,4.7-24.3,14.1-33.9c9.4-9.6,28.3-21.7,56.7-36.1c16.4-8.3,24.7-15,24.7-19.9V343c0-9.5-4.1-14.2-12.2-14.2
			c-9.3,0-14,11.5-14,34.6c0,4.2,0.2,10.3,0.7,18.4c0.7,8.1,1,14.3,1,18.4h-68.5v-57.8c0-39,28.2-58.6,84.7-58.6
			c52.8,0,79.3,20.4,79.3,61.1L1338.2,575.2L1338.2,575.2z M1267.2,521.2v-74.5c-16.3,4-24.4,11.3-24.4,21.9v52.6
			c0,8.8,4.2,13.2,12.7,13.2C1263.3,534.4,1267.2,530,1267.2,521.2z"/>
		<path class="st0" d="M1354.4,458.9h71v61.3c0,9.8,4,14.7,12,14.7s12-9.4,12-28.2c0-24.4-4.9-40.2-14.7-47.4
			c-37.1-19.4-59.4-33-67-40.8c-7.6-7.7-11.5-19.3-11.5-34.8v-38.9c0-40.7,27.6-61.1,82.7-61.1c53.7,0,80.5,19.5,80.5,58.6v57.1
			h-69.3l1.5-34.6c0-24.1-4.4-36.1-13.2-36.1s-13.2,7.6-13.2,22.7c0,15.6,2,27.4,5.9,35.4c3.9,8,25.6,21.7,65.2,41.1
			c16.4,11.8,24.7,27.4,24.7,46.9v43.4c0,40.7-28,61.1-84.1,61.1c-54.9,0-82.4-19.5-82.4-58.6L1354.4,458.9L1354.4,458.9z"/>
		<path class="st0" d="M1702,575.2h-71V342c0-8.8-4-13.2-12-13.2c-8.1,0-12.2,4.2-12.2,12.7v233.8h-71V217.9h71v76.8
			c8.5-7.1,23.1-10.7,44-10.7c13.9,0,25.9,3.7,36,11c10.1,7.3,15.2,17,15.2,29.2V575.2z"/>
		<path class="st0" d="M1890.7,342.7h-71.3v-70.8c0-5.8-3.6-8.7-10.8-8.7c-7.6,0-11.3,2.9-11.3,8.7v248c0,5.8,3.8,8.7,11.3,8.7
			c7.2,0,10.8-2.9,10.8-8.7v-88.2h71.3v90.7c0,16.9-8.3,30.5-24.9,40.7c-16.6,10.2-35.4,15.3-56.3,15.3c-60.5,0-90.7-21.4-90.7-64.3
			v-230c0-46.4,30.2-69.5,90.7-69.5c54.2,0,81.2,21.1,81.2,63.3L1890.7,342.7L1890.7,342.7z"/>
		<path class="st0" d="M1905.7,518.2V345c0-40.7,28.2-61.1,84.5-61.1c21.8,0,40.9,4.7,57.4,14.2c16.5,9.5,24.8,24.3,24.8,44.4v178.2
			c0,39-27.4,58.6-82.2,58.6C1933.8,579.2,1905.7,558.9,1905.7,518.2z M2001.4,520.2V343c0-9.5-4.1-14.2-12.2-14.2
			c-8.3,0-12.5,4.7-12.5,14.2v177.2c0,9.8,4.2,14.7,12.5,14.7C1997.3,534.9,2001.4,530,2001.4,520.2z"/>
		<path class="st0" d="M2156.6,269.9h-71v-52h71V269.9z M2156.6,575.2h-71V285.9h71V575.2z"/>
		<path class="st0" d="M2337.8,575.2h-71V343c0-8.8-4.1-13.2-12.3-13.2c-8.2,0-12.3,4.2-12.3,12.7v232.8h-71V285.9h71v9.7
			c9.5-7.8,24.2-11.7,44-11.7c12.8,0,24.7,3.5,35.5,10.5s16.2,17.2,16.2,30.7L2337.8,575.2L2337.8,575.2z"/>
		<path class="st0" d="M2352.7,458.9h71v61.3c0,9.8,4,14.7,12,14.7s12-9.4,12-28.2c0-24.4-4.9-40.2-14.7-47.4
			c-37.1-19.4-59.4-33-67-40.8c-7.6-7.7-11.5-19.3-11.5-34.8v-38.9c0-40.7,27.6-61.1,82.7-61.1c53.7,0,80.5,19.5,80.5,58.6v57.1
			h-69.3l1.5-34.6c0-24.1-4.4-36.1-13.2-36.1s-13.2,7.6-13.2,22.7c0,15.6,2,27.4,5.9,35.4c3.9,8,25.6,21.7,65.2,41.1
			c16.4,11.8,24.7,27.4,24.7,46.9v43.4c0,40.7-28,61.1-84.1,61.1c-54.9,0-82.4-19.5-82.4-58.6L2352.7,458.9L2352.7,458.9z"/>
	</g>
	<g>
		<polygon class="st0" points="812.4,217.9 790.8,217.9 719.7,217.9 641.2,217.9 641.2,416.1 641.2,435.1 641.2,435.8 719.7,435.8 
			719.7,435.1 719.7,416.1 719.7,330.9 719.7,304.5 719.7,296.4 897.8,296.4 897.8,217.9 		"/>
		<polygon class="st0" points="743.6,496.7 641.2,496.7 641.2,575.2 897.8,575.2 897.8,496.7 774.7,496.7 		"/>
		<polygon class="st0" points="838,357.3 798.2,357.3 798.2,435.8 897.8,435.8 897.8,357.3 850,357.3 		"/>
	</g>
</g>
</svg>
