<?xml version="1.0" encoding="utf-8"?>
<!-- Generator: Adobe Illustrator 19.0.0, SVG Export Plug-In . SVG Version: 6.00 Build 0)  -->
<svg version="1.1" id="Layer_1" xmlns="http://www.w3.org/2000/svg" xmlns:xlink="http://www.w3.org/1999/xlink" x="0px" y="0px"
	 viewBox="0 0 502.1 510.4" style="enable-background:new 0 0 502.1 510.4;" xml:space="preserve">
<style type="text/css">
	.st0{fill:#ABABAB;}
</style>
<g id="XMLID_123_">
	<g id="XMLID_6_">
		<path id="XMLID_28_" class="st0" d="M353.6,0h-205L46,177.7l102.6,177.6h205l102.6-177.6L353.6,0z M329.6,313.7h-157L94,177.7
			l78.6-136h157l78.6,136L329.6,313.7z"/>
		<path id="XMLID_10_" class="st0" d="M235.7,162.4L235.7,162.4L235.7,162.4z"/>
		<path id="XMLID_26_" class="st0" d="M174.5,101.1v30.7h61.3c0,5.7,0,28,0,30.7l-0.1-0.1h-61.3v30.7c52.6,0,68,0,71.9,0
			c0.9,0,1.2,0,1.2,0c2,0,7.1,0,18.9,0l0.1,0.1c0-22.1,0-39.1,0-61.3h30.7v91.8H174.4v30.7c51.4,0,102.2,0,153.4,0
			c0-33.4,0-120.1,0-153.3C294.5,101.1,207.5,101.1,174.5,101.1z"/>
	</g>
	<g id="XMLID_5_">
		<path id="XMLID_16_" class="st0" d="M48.2,509.2H0V421h48.2v5.7h-42V460H46v5.7H6.2v37.8h42V509.2z"/>
		<path id="XMLID_18_" class="st0" d="M148.5,509.2v-43c0-6.4-1.2-11.1-3.7-14.1c-2.5-3-6.4-4.4-11.4-4.4c-6.7,0-11.6,1.7-14.8,5.4
			s-4.9,9.4-4.9,17.5v38.5h-6.2v-44.7c0-11.1-5.2-16.6-15.3-16.6c-6.9,0-11.9,2-15.1,5.9c-3.2,4-4.7,10.4-4.7,19.3v36.1h-5.9v-65.5
			h4.9l1.2,8.9h0.2c1.7-3.2,4.4-5.7,7.7-7.7c3.5-1.7,6.9-2.7,11.1-2.7c10.4,0,17.1,4,20,11.6h0.2c2.2-3.7,4.9-6.7,8.6-8.6
			c3.7-2,7.7-3,12.4-3c7.2,0,12.6,2,16.1,5.7s5.4,9.9,5.4,18.3v43L148.5,509.2L148.5,509.2z"/>
		<path id="XMLID_20_" class="st0" d="M202.1,510.4c-9.6,0-17.1-3-22.2-8.9c-5.4-5.9-7.9-14.1-7.9-24.7c0-10.4,2.5-18.8,7.7-25.2
			c5.2-6.2,12.1-9.4,20.8-9.4c7.7,0,13.8,2.7,18.3,8.2c4.4,5.4,6.7,12.6,6.7,22v4.9h-47.2c0,8.9,2.2,15.8,6.4,20.5
			c4.2,4.7,10.1,7.2,17.8,7.2c3.7,0,6.9-0.2,9.9-0.7c2.7-0.5,6.4-1.7,10.9-3.5v5.4c-3.7,1.7-7.2,2.7-10.4,3.2
			C209.3,509.9,205.8,510.4,202.1,510.4z M200.4,447.7c-6.4,0-11.4,2-15.3,6.2c-3.7,4.2-6.2,10.1-6.7,18h40.5
			c0-7.7-1.7-13.6-4.9-17.8C210.8,449.6,206.1,447.7,200.4,447.7z"/>
		<path id="XMLID_153_" class="st0" d="M269.4,442.2c2.7,0,5.7,0.2,8.9,0.7l-1.2,5.7c-2.7-0.7-5.7-1-8.4-1c-5.7,0-10.1,2.5-13.8,7.2
			c-3.5,4.7-5.4,10.6-5.4,18v36.1h-5.9v-65.5h5.2l0.5,11.9h0.5c2.7-4.9,5.7-8.2,8.6-10.1C261.2,443.2,264.9,442.2,269.4,442.2z"/>
		<path id="XMLID_155_" class="st0" d="M317.8,510.4c-9.4,0-16.8-3-22-8.9c-5.2-5.9-7.9-14.1-7.9-24.7c0-10.9,2.7-19.3,8.2-25.5
			c5.4-5.9,13.1-9.1,22.7-9.1c5.7,0,11.1,1,16.3,3l-1.7,5.2c-5.7-2-10.6-2.7-14.8-2.7c-8.2,0-14.1,2.5-18.3,7.4s-6.2,12.1-6.2,21.5
			c0,8.9,2,15.8,6.2,20.8c4.2,4.9,9.9,7.4,17.3,7.4c5.9,0,11.4-1,16.6-3.2v5.4C329.9,509.2,324.5,510.4,317.8,510.4z"/>
		<path id="XMLID_157_" class="st0" d="M404.5,476.3c0,10.6-2.5,19-7.7,25c-5.2,5.9-12.4,9.1-21.5,9.1c-5.7,0-10.9-1.5-15.3-4.2
			c-4.4-2.7-7.7-6.7-10.1-11.9c-2.2-5.2-3.5-11.1-3.5-18c0-10.6,2.5-19,7.7-25s12.4-8.9,21.3-8.9c8.9,0,16.1,3,21.3,9.1
			C401.8,457.3,404.5,465.7,404.5,476.3z M352.6,476.3c0,8.9,2,16.1,5.9,21c4,4.9,9.6,7.7,16.8,7.7s12.8-2.5,16.8-7.7
			c4-4.9,5.9-12.1,5.9-21c0-9.1-2-16.1-5.9-21c-4-4.9-9.6-7.4-16.8-7.4s-12.8,2.5-16.8,7.4C354.6,460,352.6,467.2,352.6,476.3z"/>
		<path id="XMLID_160_" class="st0" d="M421.8,425.4c0-4,1.2-5.7,3.7-5.7c1.2,0,2.2,0.5,3,1.5s1,2.5,1,4.2c0,1.7-0.2,3.2-1,4.2
			c-0.7,1-1.7,1.5-3,1.5C423.1,431.1,421.8,429.1,421.8,425.4z M428.5,509.2h-5.9v-65.5h5.9V509.2z"/>
		<path id="XMLID_163_" class="st0" d="M496.2,509.2v-42.5c0-6.7-1.5-11.4-4.2-14.3c-2.7-3-7.2-4.4-12.8-4.4c-7.9,0-13.6,2-17.3,5.9
			s-5.4,10.4-5.4,19.3v36.1h-5.9v-65.5h5.2l1.2,8.9h0.2c4.2-6.9,11.9-10.4,22.7-10.4c14.8,0,22.2,7.9,22.2,24v43H496.2z"/>
	</g>
</g>
</svg>
