<?xml version="1.0" encoding="utf-8"?>
<!-- Generator: Adobe Illustrator 19.0.0, SVG Export Plug-In . SVG Version: 6.00 Build 0)  -->
<svg version="1.1" id="Layer_1" xmlns="http://www.w3.org/2000/svg" xmlns:xlink="http://www.w3.org/1999/xlink" x="0px" y="0px"
	 viewBox="0 0 868.4 510.4" style="enable-background:new 0 0 868.4 510.4;" xml:space="preserve">
<style type="text/css">
	.st0{fill:#ABABAB;}
</style>
<g id="XMLID_190_">
	<path id="XMLID_95_" class="st0" d="M548.2,0L548.2,0H346.9L165.4,342.8h183.5V3.8l179,337.7h0.6c5.7,0.6,11.4,1.3,17.1,1.3
		c87,0,157.4-76.8,157.4-171.4C703.1,78.1,633.9,1.9,548.2,0z"/>
	<g id="XMLID_80_">
		<polygon id="XMLID_94_" class="st0" points="56.3,422.8 45,422.8 0,508 8.9,508 50.3,430.3 51.4,430.3 92.4,508 101.2,508 		"/>
		<path id="XMLID_91_" class="st0" d="M174.3,426c5.6,2.1,10.3,4.9,14.2,8.7s6.8,8.3,8.9,13.7c2.1,5.4,3.2,11.5,3.2,18.1
			c0,5.9-1,11.3-3,16.4c-2.1,5.1-5.1,9.5-9.1,13.5c-4,3.8-8.4,6.8-13.5,8.7c-5.1,2.1-10.7,3-16.5,3h-39.6v-85.4h36.7
			C162.6,422.8,168.8,423.9,174.3,426z M182.8,490.4c2.9-3.2,5.1-6.8,6.7-11.1c1.6-4.1,2.4-8.6,2.4-13.4c0-5.4-0.8-10.2-2.5-14.6
			c-1.7-4.5-4.1-8.1-7.2-11.3c-3-3.2-6.7-5.6-11.1-7.3c-4.3-1.7-9.1-2.5-14.3-2.5h-30.2v70.5h32.4
			C168.4,500.6,176.4,497.2,182.8,490.4z"/>
		<path id="XMLID_88_" class="st0" d="M607.8,426c5.6,2.1,10.3,4.9,14.2,8.7s6.8,8.3,8.9,13.7c2.1,5.4,3.2,11.5,3.2,18.1
			c0,5.9-1,11.3-3,16.4c-2.1,5.1-5.1,9.5-9.1,13.5c-4,3.8-8.4,6.8-13.5,8.7c-5.1,2.1-10.7,3-16.5,3h-39.6v-85.4H589
			C595.8,422.8,602.2,423.9,607.8,426z M616.2,490.4c2.9-3.2,5.1-6.8,6.7-11.1c1.6-4.1,2.4-8.6,2.4-13.4c0-5.4-0.8-10.2-2.5-14.6
			c-1.7-4.5-4.1-8.1-7.2-11.3c-3-3.2-6.7-5.6-11.1-7.3c-4.3-1.7-9.1-2.5-14.3-2.5h-30.2v70.5h32.4
			C601.9,500.6,609.8,497.2,616.2,490.4z"/>
		<path id="XMLID_87_" class="st0" d="M266.3,508h-11.6l-42.5-85.3h8.9l39.4,79.1l39.3-79.1h8.9L266.3,508z"/>
		<path id="XMLID_86_" class="st0" d="M326.4,508v-85.3h79.4v7.5H334v28.9h71.7v7.5H334v34h71.7v7.5h-79.4V508z"/>
		<path id="XMLID_85_" class="st0" d="M510.4,508l-71.9-77.8V508h-7.6v-85.3H442l71.7,77.8v-77.8h7.6V508H510.4z"/>
		<path id="XMLID_82_" class="st0" d="M741,498.8c-4.5,3.7-9.7,6.5-15.7,8.6c-6,2.1-12.6,3-19.7,3s-13.7-1-19.9-3
			c-6-2.1-11.3-4.9-15.9-8.6c-10.5-8.6-15.7-19.9-15.7-33.6c0-13.5,5.2-24.7,15.9-33.4c4.6-3.8,9.9-6.7,15.9-8.7
			c6-2.1,12.6-3,19.6-3c6.8,0,13.4,1,19.4,3c6,2.1,11.5,4.9,15.9,8.7c10.7,8.7,15.9,19.9,15.9,33.4
			C756.8,479.1,751.5,490.2,741,498.8z M734.7,436.8c-3.8-3-8.1-5.2-13.2-7c-5.1-1.7-10.3-2.5-16.1-2.5s-11,0.8-16.1,2.5
			c-5.1,1.7-9.5,4-13.2,7c-9.2,7.3-13.8,16.7-13.8,28.5c0,5.6,1,10.8,3,15.4c2.1,4.6,4.9,8.6,8.7,11.9c3.8,3.3,8.3,5.9,13.5,7.6
			c5.2,1.7,11.1,2.7,17.7,2.7c6.5,0,12.4-1,17.7-2.7c5.2-1.9,9.9-4.5,13.5-7.6c3.8-3.3,6.7-7.3,8.7-11.9c2.1-4.6,3.2-9.9,3.2-15.4
			C748.5,453.6,743.9,444.3,734.7,436.8z"/>
		<path id="XMLID_81_" class="st0" d="M842.7,473c8.3-0.6,14.6-3,19.1-7.3c4.5-4.3,6.5-10.2,6.5-17.5c0-3.8-0.6-7.3-1.7-10.5
			c-1.1-3.2-2.9-5.9-5.1-8.1c-2.2-2.2-4.9-4-8.1-5.1c-3.2-1.1-6.7-1.7-10.7-1.7h-64.3v7.5h60.9c13.7,0,20.7,5.9,20.7,17.7
			c0,5.7-1.6,10-4.6,13.2c-3,3-7.5,4.6-13.2,4.6h-63.6V508h7.6v-35h46.3l26.7,35h9.2L842.7,473z"/>
	</g>
</g>
</svg>
