<?xml version="1.0" encoding="utf-8"?>
<!-- Generator: Adobe Illustrator 19.0.0, SVG Export Plug-In . SVG Version: 6.00 Build 0)  -->
<svg version="1.1" id="Layer_1" xmlns="http://www.w3.org/2000/svg" xmlns:xlink="http://www.w3.org/1999/xlink" x="0px" y="0px"
	 viewBox="0 0 388.5 104.2" style="enable-background:new 0 0 388.5 104.2;" xml:space="preserve">
<style type="text/css">
	.st0{fill:#069DD8;}
	.st1{fill:#1F7995;}
	.st2{fill:#A4BE39;}
	.st3{fill:#012035;}
</style>
<g id="XMLID_1962_">
	<rect id="XMLID_6248_" x="60.7" class="st0" width="34.7" height="34.7"/>
	<rect id="XMLID_6192_" x="60.7" y="69.5" class="st0" width="34.7" height="34.7"/>
	<rect id="XMLID_6191_" x="95.5" y="34.7" class="st1" width="34.7" height="34.7"/>
	
		<rect id="XMLID_6190_" x="7.2" y="34.7" transform="matrix(-0.7071 -0.7071 0.7071 -0.7071 5.0865 106.305)" class="st2" width="34.7" height="34.7"/>
	<path id="XMLID_6144_" class="st3" d="M246.3,28.1h6.5v39.2h-6.5V28.1z M278.8,39h6.8l-11.3,29.2c-1.1,2.9-2.4,4.9-3.8,6.1
		c-1.4,1.2-3.2,1.8-5.5,1.8c-2.4,0-4.6-0.6-6.7-1.7l2.2-4.8c1.3,0.7,2.6,1.1,3.8,1.1c0.9,0,1.7-0.2,2.3-0.7s1.2-1.3,1.7-2.6
		L256.5,39h6.9l8.1,21.1L278.8,39z M324.2,39h6.5v28.4h-6.5V39z M324,28.4h7v6.2h-7V28.4z M388.5,58.9c0,2.9-1,5.1-3,6.6
		c-2,1.5-4.5,2.3-7.6,2.3c-4.4,0-8.5-1.4-12-4.2l2.9-4.4c3.1,2.3,6.2,3.5,9.3,3.5c1.4,0,2.5-0.3,3.2-0.8c0.8-0.6,1.2-1.3,1.2-2.3
		c0-0.5-0.1-0.9-0.4-1.3s-0.7-0.7-1.4-1c-0.7-0.3-1.3-0.6-1.7-0.7c-0.5-0.1-1.2-0.4-2.3-0.7l-0.5-0.2c-1-0.3-1.9-0.6-2.6-0.8
		s-1.5-0.6-2.3-1.1c-0.9-0.5-1.6-1-2.1-1.5s-1-1.3-1.3-2.1c-0.4-0.9-0.5-1.8-0.5-2.9c0-2.6,1-4.7,2.9-6.3c1.9-1.6,4.3-2.4,7.2-2.4
		c3.7,0,7.2,1.1,10.4,3.2l-2.6,4.6c-2.9-1.8-5.6-2.7-8-2.7c-1.3,0-2.2,0.3-2.9,0.8s-1,1.3-1,2.1c0,0.6,0.3,1.2,0.9,1.7
		c0.6,0.5,1.3,0.9,1.9,1.1c0.6,0.2,1.6,0.6,3,1c0,0,0.1,0.1,0.3,0.1c0.1,0,0.2,0.1,0.3,0.1c1.3,0.4,2.3,0.8,3.2,1.2s1.8,0.9,2.7,1.5
		s1.7,1.4,2.2,2.4C388.2,56.6,388.5,57.7,388.5,58.9z M204.2,42.7c2.9,2.9,4.3,6.4,4.3,10.5s-1.4,7.7-4.3,10.5
		c-2.9,2.9-6.5,4.3-10.8,4.3c-3,0-5.9-1.2-8.1-3.1v11h-6.5V39h6.5v2.5c2.2-1.9,5-3.1,8.1-3.1C197.7,38.4,201.3,39.8,204.2,42.7z
		 M202,53.2c0-2.5-0.8-4.7-2.5-6.5c-1.6-1.8-3.7-2.7-6.2-2.7c-2.5,0-8,1.8-8,9.1v0c0,7.3,5.4,9.1,8,9.1c2.5,0,4.6-0.9,6.2-2.7
		C201.2,57.9,202,55.7,202,53.2z M315.4,42.7c-2.9-2.9-6.5-4.3-10.8-4.3c-3,0-5.9,1.2-8.1,3.1V28.1H290v39.2h6.5v-2.4
		c2.2,1.9,5,3.1,8.1,3.1c4.3,0,7.9-1.4,10.8-4.3c2.9-2.9,4.3-6.4,4.3-10.5S318.2,45.5,315.4,42.7z M310.7,59.7
		c-1.6,1.8-3.7,2.7-6.2,2.7c-2.5,0-7.8-1.8-7.9-8.9V53c0.1-7.2,5.4-8.9,7.9-8.9c2.5,0,4.6,0.9,6.2,2.7c1.6,1.8,2.5,3.9,2.5,6.5
		S312.4,57.9,310.7,59.7z M355.7,39h6.5v28.4h-6.5v-2.5c-2.2,1.9-5,3.1-8.1,3.1c-0.2,0-0.3,0-0.5,0c-1.7,0-3.3-0.3-4.8-0.8
		c-1.1-0.5-2.1-1.2-3-2.1c-1.8-2-2.7-4.6-2.7-7.9V42.7V39h6.1h0.4v6.2v9.9c0,2.2,0.5,3.9,1.6,5.1c1.1,1.2,2.9,1.5,4.5,1.5
		c5.1,0,6.4-3.8,6.4-7.3c0-1.2,0-13,0-13V39z M237.2,42.7c-2.9-2.9-6.5-4.3-10.8-4.3c-4.3,0-7.9,1.4-10.8,4.3
		c-2.9,2.9-4.3,6.4-4.3,10.5s1.4,7.6,4.3,10.5S222,68,226.3,68c4.3,0,7.9-1.4,10.8-4.3c2.9-2.9,4.3-6.4,4.3-10.4
		C241.5,49,240.1,45.5,237.2,42.7z M232.7,59.7c-1.6,1.8-3.7,2.6-6.2,2.6c-2.5,0-4.5-0.9-6.2-2.7c-1.6-1.8-2.5-3.9-2.5-6.4
		c0-2.6,0.8-4.7,2.4-6.5c1.6-1.8,3.6-2.6,6.2-2.6c2.5,0,4.6,0.9,6.2,2.7c1.6,1.8,2.5,3.9,2.5,6.5C235,55.8,234.2,57.9,232.7,59.7z"
		/>
</g>
</svg>
